<?xml version="1.0" encoding="utf-8"?>
<!-- Generator: Adobe Illustrator 22.0.1, SVG Export Plug-In . SVG Version: 6.00 Build 0)  -->
<svg version="1.1" id="Слой_1" xmlns="http://www.w3.org/2000/svg" xmlns:xlink="http://www.w3.org/1999/xlink" x="0px" y="0px"
	 viewBox="0 0 300 300" style="enable-background:new 0 0 300 300;" xml:space="preserve">
<style type="text/css">
	.st0{fill:#2787f5;}
	.st1{fill:none;stroke:#2787f5;stroke-width:20;stroke-miterlimit:10;}
</style>
<g>
	<path class="st0" d="M224.8,29c16.6,0,30.2,13.5,30.2,30.2v181.7c0,16.6-13.5,30.2-30.2,30.2H76.2C59.5,271,46,257.5,46,240.8V59.2
		C46,42.5,59.5,29,76.2,29H224.8 M224.8,9H76.2C48.6,9,26,31.6,26,59.2v181.7c0,27.6,22.6,50.2,50.2,50.2h148.7
		c27.6,0,50.2-22.6,50.2-50.2V59.2C275,31.6,252.4,9,224.8,9L224.8,9z"/>
</g>
<g>
	<line class="st1" x1="36" y1="106" x2="269" y2="106"/>
</g>
</svg>
